<svg width="11" height="20" viewBox="0 0 11 20" fill="none" xmlns="http://www.w3.org/2000/svg">
<path d="M9.71448 0.836822L7.40009 0.833008C4.79996 0.833008 3.11964 2.60392 3.11964 5.34487V7.42513H0.792626C0.591544 7.42513 0.428711 7.59259 0.428711 7.79915V10.8132C0.428711 11.0198 0.59173 11.187 0.792626 11.187H3.11964V18.7925C3.11964 18.9991 3.28247 19.1663 3.48355 19.1663H6.51964C6.72072 19.1663 6.88355 18.9989 6.88355 18.7925V11.187H9.60437C9.80546 11.187 9.96829 11.0198 9.96829 10.8132L9.9694 7.79915C9.9694 7.69997 9.93097 7.60499 9.86283 7.5348C9.79469 7.46461 9.70185 7.42513 9.6053 7.42513H6.88355V5.66166C6.88355 4.81407 7.08018 4.38379 8.15503 4.38379L9.7141 4.38322C9.915 4.38322 10.0778 4.21576 10.0778 4.00939V1.21065C10.0778 1.00447 9.91519 0.837204 9.71448 0.836822Z" fill="#787A80"/>
</svg>
