<svg width="18" height="18" viewBox="0 0 18 18" fill="none" xmlns="http://www.w3.org/2000/svg">
<path d="M17.4086 17.3337L17.4128 17.333V11.2205C17.4128 8.23019 16.769 5.92671 13.2732 5.92671C11.5926 5.92671 10.4648 6.84894 10.0044 7.72324H9.95581V6.20588H6.64122V17.333H10.0926V11.8232C10.0926 10.3726 10.3676 8.96977 12.1641 8.96977C13.9343 8.96977 13.9607 10.6253 13.9607 11.9163V17.3337H17.4086Z" fill="#787A80"/>
<path d="M1.02109 6.20657H4.47665V17.3337H1.02109V6.20657Z" fill="#787A80"/>
<path d="M2.74748 0.666992C1.64262 0.666992 0.746094 1.56352 0.746094 2.66838C0.746094 3.77324 1.64262 4.68852 2.74748 4.68852C3.85234 4.68852 4.74887 3.77324 4.74887 2.66838C4.74818 1.56352 3.85165 0.666992 2.74748 0.666992Z" fill="#787A80"/>
</svg>
