<svg width="18" height="14" viewBox="0 0 18 14" fill="none" xmlns="http://www.w3.org/2000/svg">
<path d="M17.8291 1.8106C17.185 2.08388 16.4939 2.26922 15.7678 2.35196C16.5092 1.92683 17.0767 1.25252 17.3457 0.451489C16.6503 0.845186 15.8826 1.13106 15.0646 1.28603C14.4096 0.616946 13.4779 0.200195 12.4444 0.200195C10.4618 0.200195 8.85433 1.73942 8.85433 3.63674C8.85433 3.90583 8.88604 4.16865 8.94729 4.41997C5.96411 4.2765 3.31883 2.90797 1.54838 0.828429C1.2389 1.33523 1.06284 1.92576 1.06284 2.55613C1.06284 3.74878 1.69711 4.8011 2.65944 5.41677C2.0711 5.39793 1.51776 5.24296 1.03333 4.98537V5.0283C1.03333 6.69317 2.27123 8.08265 3.91263 8.39888C3.6119 8.47637 3.29478 8.5193 2.96672 8.5193C2.7349 8.5193 2.51071 8.49732 2.29091 8.45542C2.74799 9.82188 4.07339 10.8156 5.64373 10.8428C4.41567 11.7642 2.86721 12.3119 1.18534 12.3119C0.895565 12.3119 0.610131 12.2951 0.329102 12.2647C1.91803 13.2417 3.8044 13.8113 5.83183 13.8113C12.4357 13.8113 16.0456 8.57376 16.0456 4.0315L16.0335 3.5865C16.7388 3.1048 17.349 2.49959 17.8291 1.8106Z" fill="#787A80"/>
</svg>
